<svg width="128" height="128" viewBox="0 0 1024 1024" fill="none" xmlns="http://www.w3.org/2000/svg">
<path d="M112.5 427.5L180 258.5L392.5 379L542.5 346.5L734 132.5L874 27V179L722 495V707L682.5 842L665 966L608 990L494 935L335.5 842H280L233.5 631L140.5 546.5L112.5 427.5Z" fill="#FF6E1D" stroke="black" stroke-width="10"/>
<path d="M628 736.5V797L695 766.5V715L628 736.5Z" fill="#5E6EFF" stroke="black" stroke-width="10"/>
<path d="M464 739.5L403 763.5L464 818.5L530.5 791L464 739.5Z" fill="#5E6EFF" stroke="black" stroke-width="10"/>
<path d="M322.77 684.38C321.817 684.64 320.993 684.77 320.3 684.77C319.607 684.77 319 684.51 318.48 683.99C317.873 683.47 317.57 682.777 317.57 681.91C317.57 680.35 318.567 679.31 320.56 678.79C325.067 677.403 328.187 674.803 329.92 670.99C331.653 667.263 332.52 662.193 332.52 655.78V612.49H324.59C323.723 612.49 322.987 612.23 322.38 611.71C321.86 611.103 321.6 610.367 321.6 609.5C321.6 608.633 321.86 607.897 322.38 607.29C322.987 606.683 323.723 606.38 324.59 606.38H332.52V577C332.52 569.46 334.08 564.13 337.2 561.01C340.407 557.803 345.303 556.2 351.89 556.2C358.477 556.2 364.11 557.63 368.79 560.49C369.83 561.097 370.35 561.877 370.35 562.83V574.01C370.35 574.877 370.003 575.613 369.31 576.22C368.617 576.74 367.793 577 366.84 577C365.887 577 365.063 576.74 364.37 576.22C363.677 575.613 363.33 574.877 363.33 574.01V564.26C360.297 562.873 356.527 562.18 352.02 562.18C347.513 562.18 344.263 563.35 342.27 565.69C340.363 567.943 339.41 571.757 339.41 577.13V606.38H362.03C362.897 606.38 363.59 606.683 364.11 607.29C364.717 607.897 365.02 608.633 365.02 609.5C365.02 610.367 364.717 611.103 364.11 611.71C363.59 612.23 362.897 612.49 362.03 612.49H339.41V655.78C339.41 663.493 338.24 669.647 335.9 674.24C333.56 678.833 329.183 682.213 322.77 684.38ZM411.334 626.4C411.074 621.72 409.687 617.993 407.174 615.22C404.747 612.447 401.194 611.06 396.514 611.06C391.92 611.06 388.064 612.49 384.944 615.35C381.824 618.123 379.874 621.807 379.094 626.4H411.334ZM411.594 642.52C412.2 641.48 412.894 640.96 413.674 640.96C414.454 640.96 415.234 641.177 416.014 641.61C416.794 641.957 417.314 642.563 417.574 643.43C417.92 644.21 417.877 644.947 417.444 645.64C413.024 652.747 406.004 656.3 396.384 656.3C388.757 656.3 382.734 653.873 378.314 649.02C373.98 644.08 371.814 637.883 371.814 630.43C371.814 622.977 374.067 616.91 378.574 612.23C383.08 607.463 389.017 605.08 396.384 605.08C403.75 605.08 409.21 607.29 412.764 611.71C416.404 616.13 418.224 622.023 418.224 629.39C418.224 631.383 417.097 632.38 414.844 632.38L378.834 632.51C379.18 637.883 380.914 642.217 384.034 645.51C387.24 648.717 391.357 650.32 396.384 650.32C403.144 650.32 408.214 647.72 411.594 642.52ZM433.489 612.49H427.379C426.513 612.49 425.776 612.23 425.169 611.71C424.649 611.103 424.389 610.367 424.389 609.5C424.389 608.633 424.649 607.897 425.169 607.29C425.776 606.683 426.513 606.38 427.379 606.38H434.399C439.773 606.38 442.459 609.327 442.459 615.22C447.659 608.46 454.203 605.08 462.089 605.08C466.769 605.08 470.583 606.293 473.529 608.72C476.563 611.06 478.079 614.527 478.079 619.12V646.42C478.079 648.067 479.249 648.89 481.589 648.89H486.659C487.526 648.89 488.219 649.193 488.739 649.8C489.346 650.407 489.649 651.143 489.649 652.01C489.649 652.877 489.346 653.613 488.739 654.22C488.219 654.74 487.526 655 486.659 655H481.589C474.569 655 471.059 652.183 471.059 646.55V619.12C471.059 616.52 470.236 614.527 468.589 613.14C467.029 611.753 464.819 611.06 461.959 611.06C453.986 611.06 447.659 615.22 442.979 623.54V653.31C442.979 654.177 442.633 654.87 441.939 655.39C441.246 655.997 440.423 656.3 439.469 656.3C438.516 656.3 437.693 655.997 436.999 655.39C436.306 654.87 435.959 654.177 435.959 653.31V614.96C435.959 613.313 435.136 612.49 433.489 612.49ZM499.632 612.49H493.522C492.655 612.49 491.919 612.23 491.312 611.71C490.792 611.103 490.532 610.367 490.532 609.5C490.532 608.633 490.792 607.897 491.312 607.29C491.919 606.683 492.655 606.38 493.522 606.38H500.542C505.915 606.38 508.602 609.327 508.602 615.22C513.802 608.46 520.345 605.08 528.232 605.08C532.912 605.08 536.725 606.293 539.672 608.72C542.705 611.06 544.222 614.527 544.222 619.12V646.42C544.222 648.067 545.392 648.89 547.732 648.89H552.802C553.669 648.89 554.362 649.193 554.882 649.8C555.489 650.407 555.792 651.143 555.792 652.01C555.792 652.877 555.489 653.613 554.882 654.22C554.362 654.74 553.669 655 552.802 655H547.732C540.712 655 537.202 652.183 537.202 646.55V619.12C537.202 616.52 536.379 614.527 534.732 613.14C533.172 611.753 530.962 611.06 528.102 611.06C520.129 611.06 513.802 615.22 509.122 623.54V653.31C509.122 654.177 508.775 654.87 508.082 655.39C507.389 655.997 506.565 656.3 505.612 656.3C504.659 656.3 503.835 655.997 503.142 655.39C502.449 654.87 502.102 654.177 502.102 653.31V614.96C502.102 613.313 501.279 612.49 499.632 612.49ZM600.875 626.4C600.615 621.72 599.228 617.993 596.715 615.22C594.288 612.447 590.735 611.06 586.055 611.06C581.461 611.06 577.605 612.49 574.485 615.35C571.365 618.123 569.415 621.807 568.635 626.4H600.875ZM601.135 642.52C601.741 641.48 602.435 640.96 603.215 640.96C603.995 640.96 604.775 641.177 605.555 641.61C606.335 641.957 606.855 642.563 607.115 643.43C607.461 644.21 607.418 644.947 606.985 645.64C602.565 652.747 595.545 656.3 585.925 656.3C578.298 656.3 572.275 653.873 567.855 649.02C563.521 644.08 561.355 637.883 561.355 630.43C561.355 622.977 563.608 616.91 568.115 612.23C572.621 607.463 578.558 605.08 585.925 605.08C593.291 605.08 598.751 607.29 602.305 611.71C605.945 616.13 607.765 622.023 607.765 629.39C607.765 631.383 606.638 632.38 604.385 632.38L568.375 632.51C568.721 637.883 570.455 642.217 573.575 645.51C576.781 648.717 580.898 650.32 585.925 650.32C592.685 650.32 597.755 647.72 601.135 642.52ZM655.673 646.68C656.366 646.247 657.146 646.117 658.013 646.29C658.966 646.463 659.616 646.853 659.963 647.46C660.309 647.98 660.483 648.457 660.483 648.89C660.483 650.19 660.006 651.143 659.053 651.75C653.853 654.783 648.263 656.3 642.283 656.3C636.303 656.3 632.013 655.087 629.413 652.66C626.813 650.147 625.513 646.03 625.513 640.31V612.49H618.233C617.366 612.49 616.629 612.23 616.023 611.71C615.503 611.103 615.243 610.367 615.243 609.5C615.243 608.633 615.503 607.897 616.023 607.29C616.629 606.683 617.366 606.38 618.233 606.38H625.513V587.79C625.513 586.923 625.859 586.23 626.553 585.71C627.246 585.103 628.069 584.8 629.023 584.8C629.976 584.8 630.799 585.103 631.493 585.71C632.186 586.23 632.533 586.923 632.533 587.79V606.38H654.373C655.239 606.38 655.933 606.683 656.453 607.29C657.059 607.897 657.363 608.633 657.363 609.5C657.363 610.367 657.059 611.103 656.453 611.71C655.933 612.23 655.239 612.49 654.373 612.49H632.533V640.31C632.533 643.95 633.269 646.55 634.743 648.11C636.303 649.583 639.119 650.32 643.193 650.32C647.353 650.32 651.513 649.107 655.673 646.68Z" fill="black"/>
</svg>
